<?xml version="1.0" encoding="UTF-8" standalone="no"?>
<!-- Created with Inkscape (http://www.inkscape.org/) -->

<svg
   width="106.75239mm"
   height="91.812912mm"
   viewBox="0 0 106.75239 91.812912"
   version="1.1"
   id="svg5"
   inkscape:version="1.1 (c68e22c387, 2021-05-23)"
   sodipodi:docname="slug.svg"
   xmlns:inkscape="http://www.inkscape.org/namespaces/inkscape"
   xmlns:sodipodi="http://sodipodi.sourceforge.net/DTD/sodipodi-0.dtd"
   xmlns="http://www.w3.org/2000/svg"
   xmlns:svg="http://www.w3.org/2000/svg">
  <sodipodi:namedview
     id="namedview7"
     pagecolor="#505050"
     bordercolor="#eeeeee"
     borderopacity="1"
     inkscape:pageshadow="0"
     inkscape:pageopacity="0"
     inkscape:pagecheckerboard="0"
     inkscape:document-units="mm"
     showgrid="false"
     inkscape:zoom="0.74118967"
     inkscape:cx="196.98062"
     inkscape:cy="232.73395"
     inkscape:window-width="1920"
     inkscape:window-height="1017"
     inkscape:window-x="1072"
     inkscape:window-y="561"
     inkscape:window-maximized="1"
     inkscape:current-layer="g922" />
  <defs
     id="defs2" />
  <g
     inkscape:label="Layer 1"
     inkscape:groupmode="layer"
     id="layer1"
     transform="translate(-44.255416,-16.614708)">
    <g
       transform="matrix(0.01335337,0,0,-0.01335337,38.847301,118.35504)"
       fill="#000000"
       stroke="none"
       id="g922">
      <path
         d="m 1887,7610 c -126,-22 -285,-83 -395,-154 -363,-233 -553,-695 -452,-1099 91,-361 352,-625 710,-717 l 65,-16 3,-620 c 4,-757 -14,-1236 -58,-1589 -14,-103 -58,-393 -68,-442 l -8,-38 -94,-6 c -62,-4 -120,-15 -167,-31 C 1270,2844 1112,2708 983,2519 865,2345 826,2256 785,2061 750,1895 727,1856 584,1710 432,1554 405,1506 405,1385 c 0,-70 4,-87 30,-134 34,-61 97,-120 161,-151 115,-56 223,-62 506,-28 160,20 231,22 563,22 343,0 394,-2 525,-22 264,-41 301,-50 885,-221 251,-73 408,-93 627,-80 149,8 282,34 441,85 313,100 530,94 880,-25 252,-86 548,-110 802,-66 125,22 202,48 335,116 144,74 204,90 355,96 118,5 147,2 465,-42 63,-9 174,-17 245,-18 163,-2 255,17 380,81 75,39 111,66 210,163 66,64 131,122 143,128 13,7 69,17 123,22 119,11 197,39 252,88 68,61 84,129 47,200 -29,58 -95,96 -208,122 -229,51 -257,60 -357,115 -150,82 -258,114 -395,114 -119,0 -180,21 -306,104 -117,78 -196,112 -429,185 -640,199 -1238,278 -1908,251 -359,-14 -578,-2 -1072,60 -365,46 -589,69 -740,75 -77,3 -173,8 -212,11 l -73,6 v 81 c 0,88 23,410 40,567 74,661 223,1320 441,1944 39,110 74,207 79,215 4,7 48,24 97,36 394,100 696,416 774,810 19,96 17,320 -3,411 -70,311 -299,576 -598,694 -203,80 -502,78 -710,-5 l -85,-34 -47,40 c -110,93 -271,169 -423,200 -95,20 -268,24 -358,9 z m 319,-95 c 49,-9 125,-30 169,-48 84,-34 245,-134 245,-152 -1,-5 -22,-23 -47,-40 -26,-16 -78,-59 -117,-95 -371,-348 -437,-907 -157,-1313 28,-40 51,-76 51,-79 0,-10 -108,-48 -184,-64 -94,-21 -282,-21 -368,0 -349,82 -601,336 -675,681 -23,107 -20,281 7,390 24,97 89,245 140,320 45,65 144,170 210,220 126,97 281,162 450,188 61,10 195,6 276,-8 z m 1197,-179 c 307,-91 525,-316 609,-627 18,-68 22,-110 22,-219 0,-164 -21,-256 -94,-405 -124,-255 -329,-427 -606,-507 -68,-20 -102,-23 -239,-23 -136,0 -171,3 -238,23 -284,82 -498,286 -593,564 -52,152 -58,376 -14,527 96,336 366,598 695,674 109,26 113,26 245,22 98,-3 144,-9 213,-29 z M 2473,5676 c 23,-18 62,-46 86,-62 l 43,-28 -6,-231 c -25,-838 -125,-1577 -316,-2330 -38,-148 -73,-283 -79,-298 l -11,-28 -55,38 -54,38 -1,180 c 0,407 37,1100 86,1605 38,399 128,1087 143,1103 8,8 100,46 114,47 5,0 27,-15 50,-34 z m -273,-59 c 0,-6 -13,-107 -29,-222 -107,-768 -165,-1481 -178,-2192 -3,-200 -9,-363 -12,-363 -4,0 -42,16 -86,35 -44,19 -88,35 -97,35 -22,0 -23,-8 7,162 88,508 122,1145 109,2046 l -7,492 79,1 c 43,0 99,4 124,8 68,13 90,12 90,-2 z m 557,-106 c 69,-27 184,-51 288,-59 l 91,-7 -59,-165 C 2964,4963 2844,4535 2766,4170 2653,3639 2578,2987 2576,2520 c -1,-284 8,-365 47,-435 44,-77 46,-65 49,202 l 3,248 165,-1 c 200,-2 330,-13 740,-64 623,-78 557,-74 1230,-75 516,-1 639,-4 765,-18 397,-46 765,-126 1144,-249 192,-62 254,-89 357,-160 113,-77 173,-98 324,-109 68,-5 151,-17 185,-25 61,-16 84,-26 235,-106 64,-34 112,-50 195,-67 160,-32 236,-57 268,-86 45,-43 30,-85 -46,-129 -51,-29 -70,-33 -186,-45 -60,-7 -106,-18 -136,-33 -24,-13 -98,-75 -162,-138 -131,-128 -191,-166 -318,-201 -72,-19 -96,-21 -240,-16 -91,3 -220,15 -300,28 -109,18 -183,23 -330,23 -219,1 -265,-9 -434,-94 -210,-105 -336,-134 -571,-134 -195,0 -317,21 -531,89 -213,69 -319,88 -489,88 -168,1 -263,-15 -419,-69 -127,-44 -243,-69 -386,-85 -235,-25 -474,16 -887,150 -366,119 -585,160 -976,182 -214,12 -542,1 -765,-27 -228,-28 -325,-29 -404,-6 -124,38 -201,116 -211,212 -8,86 16,130 148,265 163,167 216,257 235,396 27,202 170,456 356,633 188,179 379,218 617,126 72,-27 210,-108 288,-167 l 29,-21 -62,-186 c -52,-159 -59,-186 -44,-186 24,0 73,54 109,120 142,260 369,1268 451,2005 42,372 71,801 71,1043 0,78 4,132 10,132 5,0 31,-8 57,-19 z"
         id="path916" />
      <path
         d="m 1655,7347 c -73,-25 -139,-65 -188,-113 -141,-142 -135,-319 13,-397 52,-27 61,-29 150,-25 83,3 103,8 161,37 123,60 208,170 217,277 8,92 -32,165 -112,206 -51,27 -181,34 -241,15 z"
         id="path918" />
      <path
         d="m 2760,7174 c -267,-50 -435,-314 -298,-470 110,-125 343,-106 492,40 85,82 120,175 102,271 -9,46 -68,113 -121,136 -42,18 -133,30 -175,23 z"
         id="path920" />
      <path
         style="vector-effect:non-scaling-stroke;fill:#00ff00;fill-opacity:0.773529;stroke-width:0.00954016;-inkscape-stroke:hairline"
         d="m 414.99694,403.85027 c -1.31177,-0.21596 -7.75138,-1.98205 -14.31024,-3.92465 -11.19782,-3.31655 -12.71076,-3.53102 -24.80441,-3.51614 -11.92187,0.0147 -13.62383,0.25163 -22.89638,3.18788 -7.89603,2.50037 -12.24978,3.28098 -20.56074,3.68644 -12.33133,0.60162 -19.66249,-0.63327 -38.8955,-6.55172 -29.84288,-9.18336 -50.91611,-11.65309 -79.64149,-9.33379 -23.83416,1.92439 -30.33958,1.81151 -34.94861,-0.60639 -4.41723,-2.31728 -7.71926,-7.82335 -6.82603,-11.38227 0.32509,-1.29524 3.81909,-6.05727 7.76445,-10.5823 8.30912,-9.5299 10.36622,-13.15677 11.77031,-20.75223 2.15065,-11.63394 11.51485,-26.41345 21.2989,-33.61606 11.5725,-8.51919 21.95324,-7.77868 38.04806,2.71413 l 4.38213,2.85688 -2.71261,8.65218 c -3.13678,10.00516 -3.15957,10.17737 -1.34654,10.17737 3.64565,0 8.56197,-11.23042 13.90174,-31.75597 9.61509,-36.95947 14.97361,-72.196 17.22294,-113.25445 0.61803,-11.28124 1.22101,-20.62326 1.33995,-20.76004 0.11894,-0.13678 2.02876,0.3908 4.24404,1.1724 2.21528,0.7816 6.78998,1.70408 10.16599,2.04996 3.376,0.34588 6.13819,0.73304 6.13819,0.86034 0,0.1273 -1.45591,4.25376 -3.23536,9.16991 -7.22618,19.96401 -16.05172,55.60406 -19.58645,79.09559 -4.84953,32.22955 -6.47993,71.20471 -3.31004,79.12705 2.9411,7.35052 4.15761,4.18758 4.17646,-10.85876 l 0.013,-10.40108 11.68669,0.62527 c 6.42768,0.34389 22.41938,1.93952 35.5371,3.54584 21.26803,2.60437 28.13713,3.00645 63.44206,3.71355 43.48952,0.87102 48.94066,1.46309 74.81283,8.12573 17.22713,4.43634 28.56837,8.58631 35.71131,13.06741 4.20545,2.63827 7.8541,4.08986 11.9252,4.74433 14.23971,2.2892 16.59944,2.90801 22.97256,6.02426 3.709,1.81358 10.52549,4.23261 15.14774,5.3756 9.87798,2.44266 13.23887,4.54963 11.19177,7.01624 -1.93765,2.33472 -6.22383,4.33872 -9.29282,4.34483 -5.82382,0.0116 -9.89533,2.10201 -18.32533,9.40867 -12.84695,11.13504 -16.68058,11.98324 -41.10954,9.09567 -7.45907,-0.88169 -16.69339,-1.33864 -21.94237,-1.0858 -8.22335,0.39611 -9.94715,0.8355 -18.60331,4.74183 -5.24709,2.36789 -11.81515,4.7889 -14.5957,5.38002 -4.77763,1.01569 -20.76531,1.27585 -25.94998,0.42227 z"
         id="path1008"
         transform="matrix(19.813975,0,0,-19.813975,-2909.1758,8863.3087)" />
      <path
         style="vector-effect:non-scaling-stroke;fill:#00ff00;fill-opacity:0.773529;stroke-width:0.00954016;-inkscape-stroke:hairline"
         d="m 241.60454,301.51047 c -2.23001,-0.77749 -4.05457,-1.92079 -4.05457,-2.54067 0,-0.61988 0.84062,-6.85807 1.86805,-13.86264 3.28458,-22.39306 4.22456,-40.10092 4.27966,-80.62309 l 0.0534,-39.26701 3.33905,-0.55266 c 1.83649,-0.30396 4.95714,-0.55738 6.9348,-0.56315 3.23464,-0.009 3.54841,0.20506 3.12448,2.13603 -0.93133,4.24217 -5.259,40.62662 -6.66656,56.04844 -1.8827,20.62752 -3.36793,47.85086 -3.48726,63.91907 -0.0526,7.08357 -0.37484,13.74323 -0.71606,14.79925 -0.59119,1.82957 -0.81145,1.85343 -4.67499,0.50643 z"
         id="path1047"
         transform="matrix(19.813975,0,0,-19.813975,-2909.1758,8863.3087)" />
      <path
         style="vector-effect:non-scaling-stroke;fill:#00ffff;fill-opacity:0.773529;stroke-width:0.00954016;-inkscape-stroke:hairline"
         d="m 403.07174,399.98364 c -11.03438,-3.32242 -11.99992,-3.44893 -26.71244,-3.5002 -14.35394,-0.05 -15.80477,0.11641 -24.32741,2.79056 -8.43173,2.64561 -10.09337,2.84322 -23.8504,2.83649 l -14.78725,-0.008 -17.17228,-4.97639 c -37.18457,-10.7754 -50.92492,-12.24742 -90.16614,-9.65921 -21.05168,1.38849 -24.96225,0.87225 -29.76367,-3.92917 -5.66381,-5.66381 -5.37016,-6.72535 5.61339,-20.29241 7.12081,-8.79575 8.55625,-11.40208 9.95908,-18.08273 2.46122,-11.72094 12.03265,-27.1815 20.82209,-33.63354 11.61751,-8.52803 20.36796,-8.36877 35.58801,0.64772 7.19219,4.26071 7.01184,3.52565 3.43675,14.00718 -2.28052,6.68611 -2.25564,8.67529 0.10853,8.67529 3.81026,0 8.69111,-11.74428 14.79017,-35.58803 8.62927,-33.73538 13.40281,-65.64774 16.20195,-108.31432 0.73454,-11.19651 1.47995,-20.50171 1.65646,-20.67822 0.17651,-0.17651 2.89322,0.2841 6.03715,1.02357 3.14392,0.73946 6.78949,1.35776 8.10127,1.374 4.94788,0.0612 5.00233,0.83384 0.91152,12.93381 -4.8254,14.27279 -12.44871,43.65124 -15.66669,60.37582 -7.04228,36.60033 -9.90999,87.91687 -5.38292,96.32497 2.46481,4.57787 3.43528,1.7962 3.70984,-10.63355 l 0.26703,-12.08905 8.31911,0.57352 c 4.57552,0.31543 20.12506,1.8309 34.55455,3.36768 18.45033,1.96502 35.15293,3.05916 56.28695,3.6872 57.0033,1.69397 59.82009,1.9701 84.43041,8.27689 17.31957,4.43842 27.92657,8.18153 36.48557,12.8754 5.17481,2.83794 9.71456,4.37148 18.07023,6.10418 6.13754,1.27273 14.61886,3.78303 18.84736,5.57844 4.2285,1.79541 10.47869,4.01248 13.8893,4.92681 7.72656,2.07139 11.67391,3.99669 11.22286,5.47394 -0.5215,1.70804 -8.38494,5.42963 -11.47238,5.42963 -3.81359,0 -7.52631,2.12366 -17.60696,10.07111 -4.83634,3.81289 -10.39764,7.462 -12.35846,8.10913 -2.65266,0.87546 -6.99477,0.96641 -16.9651,0.35539 -7.36998,-0.45167 -19.83958,-0.83586 -27.71021,-0.85377 l -14.31024,-0.0325 -7.75402,3.50597 c -12.51255,5.65754 -16.49521,6.51799 -29.86426,6.45216 -10.93313,-0.0538 -13.00014,-0.36303 -23.43875,-3.50607 z"
         id="path1815"
         transform="matrix(19.813975,0,0,-19.813975,-2909.1758,8863.3087)" />
      <path
         style="vector-effect:non-scaling-stroke;fill:#00ffff;fill-opacity:0.773529;stroke-width:0.00954016;-inkscape-stroke:hairline"
         d="m 239.94312,300.16192 c -1.74516,-1.27609 -1.73922,-1.71217 0.25,-18.36481 1.12068,-9.38172 2.33201,-19.63352 2.69184,-22.78178 0.35984,-3.14825 0.91657,-25.47222 1.23719,-49.60883 l 0.58294,-43.88473 5.05045,-0.50744 c 2.77775,-0.27909 5.47771,-0.24338 5.99992,0.0794 0.61514,0.38018 0.28488,5.59769 -0.93794,14.81767 -4.31018,32.4985 -7.06962,66.7983 -8.26354,102.71586 -0.61782,18.58595 -0.65482,18.84181 -2.72479,18.84181 -1.15416,0 -2.90289,-0.5882 -3.88607,-1.30712 z"
         id="path1854"
         transform="matrix(19.813975,0,0,-19.813975,-2909.1758,8863.3087)" />
      <path
         style="vector-effect:non-scaling-stroke;fill:#ebd5b6;fill-opacity:0.773529;stroke-width:0.00477008;-inkscape-stroke:hairline"
         d="m 238.26549,158.30942 c -13.56386,-3.11658 -24.27248,-11.23086 -30.33192,-22.98352 -3.46353,-6.71773 -4.77437,-12.22045 -4.79746,-20.13902 -0.022,-7.54035 0.9667,-12.23859 4.04961,-19.243616 2.69067,-6.113784 5.28238,-9.717115 10.8762,-15.121503 6.65492,-6.429557 13.11476,-9.899077 22.70633,-12.195368 5.46568,-1.308523 15.53912,-1.058894 21.10913,0.523102 5.50115,1.562439 16.06465,7.210648 16.53536,8.84131 0.0757,0.262354 -1.07105,1.335622 -2.54841,2.38504 -1.47735,1.049418 -4.31651,3.531654 -6.30924,5.51608 -13.38082,13.325077 -18.72477,32.870855 -13.83322,50.595655 1.19244,4.32088 4.42106,11.24201 7.05049,15.11402 1.08189,1.59315 1.96707,3.09976 1.96707,3.34803 0,0.63223 -3.26486,1.86815 -7.82008,2.96029 -4.21179,1.00981 -14.99281,1.2407 -18.65386,0.3995 z m -6.77072,-54.77136 c 8.22679,-1.06042 15.98511,-8.22385 16.85109,-15.558991 0.43307,-3.668255 -0.50353,-6.296487 -3.16147,-8.871475 -2.74101,-2.655461 -5.77093,-3.493777 -11.44117,-3.165533 -4.65658,0.269566 -9.13757,2.388189 -12.90879,6.103312 -3.20263,3.154982 -4.87541,6.435814 -5.13893,10.078971 -0.25901,3.58076 0.56562,5.863899 2.9956,8.293886 3.22441,3.22441 6.25791,3.96357 12.80367,3.11983 z"
         id="path4526"
         transform="matrix(19.813975,0,0,-19.813975,-2909.1758,8863.3087)" />
      <path
         style="vector-effect:non-scaling-stroke;fill:#ebd5b6;fill-opacity:0.773529;stroke-width:0.00477008;-inkscape-stroke:hairline"
         d="m 296.46046,166.49248 c -4.5773,-0.44803 -8.6125,-1.76214 -14.09933,-4.59161 -24.60883,-12.69036 -30.83158,-45.59931 -12.87418,-68.084906 4.94732,-6.194846 10.01501,-10.202845 17.33522,-13.710291 13.00671,-6.232115 29.0609,-5.679142 41.48413,1.428885 9.32876,5.337508 16.0076,13.581133 19.86921,24.524362 l 1.70984,4.84544 -0.0127,8.82464 c -0.0125,8.67362 -0.0387,8.89995 -1.53679,13.22386 -5.59802,16.15803 -16.0033,26.78501 -31.12559,31.78875 -4.32658,1.4316 -5.82049,1.68907 -10.97119,1.89083 -3.27943,0.12846 -7.67982,0.0655 -9.77866,-0.13996 z m -10.21694,-53.83907 c 7.88984,-2.0596 14.27258,-8.56069 15.07752,-15.357105 0.43568,-3.67869 -0.15753,-5.56832 -2.55151,-8.127685 -2.86844,-3.066594 -5.42242,-4.025765 -10.65671,-4.002233 -3.63006,0.01632 -4.42913,0.194978 -7.63213,1.706414 -8.38773,3.958021 -13.04454,11.237289 -11.71675,18.314999 0.47483,2.53108 4.00958,6.18044 6.8701,7.09284 4.54371,1.4493 6.25521,1.50943 10.60948,0.37277 z"
         id="path8968"
         transform="matrix(19.813975,0,0,-19.813975,-2909.1758,8863.3087)" />
      <path
         style="vector-effect:non-scaling-stroke;fill:#ebd5b6;fill-opacity:0.773529;stroke-width:0.0190803;-inkscape-stroke:hairline"
         d="M 229.83988,153.96931 C 206.31681,142.72518 197.90778,118.67695 209.3603,95.401596 l 5.16361,-10.494175 0.65532,7.126402 c 1.08092,11.754807 11.44162,16.190897 23.38722,10.013587 5.23364,-2.706418 11.38573,-11.44791 11.38573,-16.17795 0,-4.027548 -9.40664,-11.457376 -14.70052,-11.611183 l -5.33381,-0.154968 5.72409,-2.62102 c 8.4024,-3.847393 20.90143,-3.347021 31.62475,1.266027 l 9.43579,4.059167 -7.48922,8.124839 c -12.25162,13.291442 -14.4154,18.856998 -14.4555,37.181718 -0.028,12.78503 0.82546,17.94062 4.03158,24.35447 2.2369,4.47491 3.28809,8.61765 2.33599,9.20608 -0.9521,0.58843 -6.21675,1.4799 -11.69921,1.98105 -7.88551,0.72081 -11.97759,-0.0494 -19.58624,-3.68633 z"
         id="path9021"
         transform="matrix(19.813975,0,0,-19.813975,-2909.1758,8863.3087)" />
      <path
         style="vector-effect:non-scaling-stroke;fill:#ebd5b6;fill-opacity:0.773529;stroke-width:0.0190803;-inkscape-stroke:hairline"
         d="m 286.20479,162.02238 c -10.77711,-4.88588 -16.46963,-10.15489 -21.4714,-19.874 -4.7012,-9.13507 -5.42331,-25.71903 -1.52751,-35.08099 2.45474,-5.89896 2.81589,-6.11593 4.15489,-2.49627 4.03345,10.90345 19.58461,12.4659 29.12435,2.92616 9.61968,-9.619684 4.7612,-23.413054 -8.31984,-23.620268 -4.81397,-0.07626 -4.81236,-0.08206 0.90156,-3.266012 8.42165,-4.692771 26.61482,-4.214171 36.4896,0.959917 21.10703,11.059455 29.2338,35.253663 19.06601,56.761393 -10.98493,23.2362 -36.5504,33.60374 -58.41766,23.69007 z"
         id="path9060"
         transform="matrix(19.813975,0,0,-19.813975,-2909.1758,8863.3087)" />
    </g>
  </g>
</svg>
